<svg width="64" height="91" viewBox="0 0 64 91" fill="none" xmlns="http://www.w3.org/2000/svg">
<path d="M61.9993 32.2072C62.0363 26.8523 60.6392 21.585 57.9532 16.9524C55.2672 12.3197 51.3901 8.4904 46.7244 5.86207C42.0588 3.23374 36.7746 1.90217 31.4206 2.0056C26.0665 2.10903 20.8377 3.64369 16.2771 6.45025C11.7164 9.25682 7.9901 13.233 5.485 17.9659C2.9799 22.6989 1.78734 28.0162 2.0311 33.3656C2.27487 38.7151 3.9461 43.9019 6.87127 48.3874C12.0948 56.3973 15.1874 59.3417 15.1874 68.8738C15.1874 69.7579 15.5386 70.6057 16.1637 71.2309C16.7888 71.856 17.6367 72.2072 18.5207 72.2072H45.4779C46.3619 72.2072 47.2098 71.856 47.8349 71.2309C48.46 70.6057 48.8112 69.7579 48.8112 68.8738C48.8112 59.1119 52.2707 56.2141 57.4598 47.9116C60.404 43.2009 61.9761 37.7623 61.9993 32.2072Z" fill="#F5FBF4" stroke="#F5FBF4" stroke-width="3" stroke-linecap="round" stroke-linejoin="round"/>
<path d="M23 88.9641L41.2954 88.9641" stroke="#F5FBF4" stroke-width="3" stroke-linecap="round" stroke-linejoin="round"/>
</svg>
