<svg width="31" height="31" viewBox="0 0 31 31" fill="none" xmlns="http://www.w3.org/2000/svg">
<path d="M5.61338 23.7305C3.54038 23.5376 1.79811 22.0213 1.51105 19.9592C1.18256 17.5996 1 15.1738 1 12.6767C1 10.0914 1.18263 7.54756 1.53431 5.11207C1.81246 3.18584 3.38473 1.7319 5.3203 1.5286C8.59016 1.18515 12.0064 1 15.5 1C18.9827 1 22.3386 1.1963 25.6114 1.53471C27.58 1.73825 29.1788 3.22239 29.4583 5.1816C29.803 7.59825 30 10.1138 30 12.6767C30 15.2193 29.7846 17.6912 29.4458 20.0913C29.1639 22.0879 27.5395 23.6117 25.5335 23.8155C22.2924 24.1447 18.951 24.3534 15.5 24.3534C15.4174 24.3534 15.3348 24.3532 15.2523 24.3528C12.8189 27.152 10.9532 28.5353 7.69231 30V23.923C7.16359 23.8752 6.63791 23.8261 6.11543 23.7773C5.94775 23.7617 5.7804 23.7461 5.61338 23.7305Z" fill="#FAFFF9" stroke="#3F4541" stroke-width="2" stroke-linecap="round" stroke-linejoin="round"/>
</svg>
