<svg width="23" height="21" viewBox="0 0 23 21" fill="none" xmlns="http://www.w3.org/2000/svg">
<path d="M10.2702 1.71698C10.127 1.3516 9.78252 1.10332 9.39052 1.08475C6.67841 0.956287 5.15395 0.979321 3.08428 1.11699C2.27001 1.17116 1.62257 1.77755 1.5294 2.54378C0.959001 7.2345 0.769766 11.9415 1.36395 16.643C1.56558 18.2384 2.94819 19.3979 4.60223 19.5681C9.27274 20.0486 13.8761 20.0363 18.5463 19.5559C20.1693 19.389 21.4722 18.1747 21.6658 16.643C22.065 13.4842 22.1459 10.2394 21.8351 6.13482C21.7633 5.18761 21.0166 4.43215 20.0707 4.34442C16.9994 4.05954 15.3812 4.06941 11.8248 3.99475C11.4217 3.98629 11.0615 3.73584 10.9144 3.36046L10.2702 1.71698Z" fill="#FAFFF9" stroke="#3F4541" stroke-width="1.5" stroke-linejoin="round"/>
<path d="M11.1621 8.0083L11.1621 14.3158" stroke="#3F4541" stroke-width="1.5" stroke-linecap="round"/>
<path d="M14.3157 11.162L8.0082 11.162" stroke="#3F4541" stroke-width="1.5" stroke-linecap="round"/>
</svg>
