<svg width="220" height="155" viewBox="0 0 220 155" fill="none" xmlns="http://www.w3.org/2000/svg">
<g filter="url(#filter0_d_28_1045)">
<rect x="1" y="1" width="210" height="145" rx="9" stroke="#F5FBF4" stroke-width="2"/>
</g>
<path d="M106 62.0344C111.184 62.0344 115.387 57.7641 115.387 52.4965C115.387 47.2288 111.184 42.9585 106 42.9585C100.816 42.9585 96.6138 47.2288 96.6138 52.4965C96.6138 57.7641 100.816 62.0344 106 62.0344Z" fill="#F5FBF4" stroke="#F5FBF4" stroke-width="1.5" stroke-linecap="round" stroke-linejoin="round"/>
<path d="M121.327 76.7638C120.508 73.4063 118.64 70.401 115.994 68.204C113.174 65.8615 109.643 64.5818 106 64.5818C102.357 64.5818 98.8266 65.8615 96.006 68.204C93.3607 70.401 91.4928 73.4062 90.6729 76.7637C91.4652 77.0323 92.2926 77.2198 93.1452 77.3164C97.3277 77.7901 101.622 78.197 106 78.197C110.379 78.197 114.673 77.7901 118.855 77.3164C119.708 77.2198 120.535 77.0324 121.327 76.7638Z" fill="#F5FBF4" stroke="#F5FBF4" stroke-width="1.5" stroke-linecap="round" stroke-linejoin="round"/>
<path d="M119.316 35C122.913 35.3937 126.439 35.8494 129.881 36.2008C130.841 36.2989 131.602 37.061 131.696 38.0223C132.039 41.5177 132.472 45.0993 132.844 48.753" stroke="#F5FBF4" stroke-width="1.5" stroke-linecap="round"/>
<path d="M119.316 89.5164C122.913 89.1226 126.439 88.6669 129.881 88.3156C130.841 88.2174 131.602 87.4553 131.696 86.494C132.039 82.9986 132.472 79.4171 132.844 75.7633" stroke="#F5FBF4" stroke-width="1.5" stroke-linecap="round"/>
<path d="M92.6841 35C89.0871 35.3937 85.561 35.8494 82.1194 36.2008C81.1585 36.2989 80.398 37.061 80.3037 38.0223C79.9609 41.5177 79.5276 45.0993 79.1564 48.753" stroke="#F5FBF4" stroke-width="1.5" stroke-linecap="round"/>
<path d="M92.6841 89.5164C89.0871 89.1226 85.561 88.6669 82.1194 88.3156C81.1585 88.2174 80.398 87.4553 80.3037 86.494C79.9609 82.9986 79.5276 79.4171 79.1564 75.7633" stroke="#F5FBF4" stroke-width="1.5" stroke-linecap="round"/>
<path d="M74.252 111.024H75.068V112.968C75.068 115.368 73.772 117.708 72.056 118.62L71.444 117.828C73.016 117.036 74.252 114.948 74.252 112.968V111.024ZM74.432 111.024H75.236V112.968C75.236 114.876 76.448 116.856 77.984 117.624L77.372 118.416C75.692 117.516 74.432 115.296 74.432 112.968V111.024ZM78.932 110.088H79.94V120.936H78.932V110.088ZM79.7 114.48H81.716V115.32H79.7V114.48ZM85.5191 111.276H86.3471V112.38C86.3471 114.372 85.1231 116.04 83.2991 116.7L82.7831 115.908C84.4151 115.332 85.5191 113.928 85.5191 112.38V111.276ZM85.7111 111.276H86.5391V112.38C86.5391 113.844 87.6671 115.164 89.2751 115.704L88.7591 116.484C86.9591 115.872 85.7111 114.288 85.7111 112.38V111.276ZM83.0471 110.988H88.9871V111.792H83.0471V110.988ZM90.5231 110.1H91.5311V118.032H90.5231V110.1ZM84.5591 119.88H91.8551V120.696H84.5591V119.88ZM84.5591 117.288H85.5431V120.24H84.5591V117.288ZM104.199 110.1H105.207V118.02H104.199V110.1ZM98.2348 119.88H105.531V120.696H98.2348V119.88ZM98.2348 117.204H99.2188V120.156H98.2348V117.204ZM99.3868 110.844C101.007 110.844 102.207 111.948 102.207 113.52C102.207 115.08 101.007 116.196 99.3868 116.196C97.7668 116.196 96.5548 115.08 96.5548 113.52C96.5548 111.948 97.7668 110.844 99.3868 110.844ZM99.3868 111.708C98.3308 111.708 97.5268 112.452 97.5268 113.52C97.5268 114.576 98.3308 115.32 99.3868 115.32C100.443 115.32 101.247 114.576 101.247 113.52C101.247 112.452 100.443 111.708 99.3868 111.708ZM107.342 115.248H117.146V116.052H107.342V115.248ZM112.238 116.988C114.554 116.988 115.958 117.708 115.958 118.956C115.958 120.204 114.554 120.912 112.238 120.912C109.922 120.912 108.518 120.204 108.518 118.956C108.518 117.708 109.922 116.988 112.238 116.988ZM112.238 117.78C110.546 117.78 109.526 118.2 109.526 118.956C109.526 119.7 110.546 120.132 112.238 120.132C113.942 120.132 114.95 119.7 114.95 118.956C114.95 118.2 113.942 117.78 112.238 117.78ZM111.602 111.072H112.49V111.396C112.49 113.136 110.498 114.324 108.254 114.588L107.894 113.808C109.838 113.592 111.602 112.62 111.602 111.396V111.072ZM112.022 111.072H112.898V111.396C112.898 112.62 114.662 113.592 116.606 113.808L116.246 114.588C114.002 114.324 112.022 113.136 112.022 111.396V111.072ZM108.242 110.64H116.27V111.444H108.242V110.64ZM125.737 110.088H126.733V120.936H125.737V110.088ZM126.493 114.54H128.509V115.38H126.493V114.54ZM118.333 111.816H124.729V112.632H118.333V111.816ZM121.573 113.532C123.109 113.532 124.213 114.564 124.213 116.028C124.213 117.492 123.109 118.524 121.573 118.524C120.049 118.524 118.933 117.492 118.933 116.028C118.933 114.564 120.049 113.532 121.573 113.532ZM121.573 114.36C120.589 114.36 119.881 115.044 119.881 116.028C119.881 117 120.589 117.696 121.573 117.696C122.557 117.696 123.265 117 123.265 116.028C123.265 115.044 122.557 114.36 121.573 114.36ZM121.057 110.22H122.053V112.188H121.057V110.22ZM137.328 110.088H138.324V120.936H137.328V110.088ZM134.148 111.252H135.132C135.132 114.396 133.716 117.144 130.092 118.92L129.564 118.116C132.696 116.604 134.148 114.3 134.148 111.42V111.252ZM130.056 111.252H134.58V112.068H130.056V111.252Z" fill="#F5FBF4"/>
<defs>
<filter id="filter0_d_28_1045" x="0" y="0" width="220" height="155" filterUnits="userSpaceOnUse" color-interpolation-filters="sRGB">
<feFlood flood-opacity="0" result="BackgroundImageFix"/>
<feColorMatrix in="SourceAlpha" type="matrix" values="0 0 0 0 0 0 0 0 0 0 0 0 0 0 0 0 0 0 127 0" result="hardAlpha"/>
<feOffset dx="4" dy="4"/>
<feGaussianBlur stdDeviation="2"/>
<feColorMatrix type="matrix" values="0 0 0 0 0 0 0 0 0 0 0 0 0 0 0 0 0 0 0.1 0"/>
<feBlend mode="normal" in2="BackgroundImageFix" result="effect1_dropShadow_28_1045"/>
<feBlend mode="normal" in="SourceGraphic" in2="effect1_dropShadow_28_1045" result="shape"/>
</filter>
</defs>
</svg>
