<svg width="170" height="40" viewBox="0 0 170 40" fill="none" xmlns="http://www.w3.org/2000/svg">
<g clip-path="url(#clip0_261_2)">
<g filter="url(#filter0_d_261_2)">
<path d="M30.9258 26.3203L30.9062 28.6445C30.9062 29.6211 30.9193 31.1641 30.9453 33.2734C30.763 33.5208 29.3177 33.6445 26.6094 33.6445C23.901 33.6445 21.4792 33.6055 19.3438 33.5273C19.3177 33.5013 19.194 33.3385 18.9727 33.0391V29.9141L19.0117 23.918C19.0117 23.332 18.9466 22.987 18.8164 22.8828C18.6862 22.7786 18.2891 22.7266 17.625 22.7266H17.3516C16.1146 22.7266 15.138 22.7852 14.4219 22.9023V25.6367L14.3828 33.1953C14.1875 33.4036 12.5534 33.5078 9.48047 33.5078H8.54297C5.88672 33.5078 3.95312 33.4688 2.74219 33.3906C2.49479 33.3125 2.37109 32.388 2.37109 30.6172L2.48828 26.3008L2.68359 8.80078V7.86328C2.69661 7.66797 2.70312 6.99089 2.70312 5.83203C2.70312 4.66016 2.77474 3.91797 2.91797 3.60547H3.01562C3.875 3.63151 4.50651 3.64453 4.91016 3.64453H7.09766L9.46094 3.60547H10.2031C12.4167 3.60547 13.7057 3.85938 14.0703 4.36719C14.2526 4.6276 14.3438 5.02474 14.3438 5.55859L14.2852 8V8.91797L14.168 12.7852C14.168 13.0716 14.1875 13.4492 14.2266 13.918H15.4375L15.9258 13.9375H17.4883C18.0612 13.9375 18.6471 13.8919 19.2461 13.8008V9.17188L19.2656 7.72656V6.37891L19.2461 6.06641V5.07031C19.2461 4.30208 19.2786 3.83333 19.3438 3.66406C19.4219 3.49479 19.6107 3.41016 19.9102 3.41016L20.3008 3.42969H21.5703L25.7891 3.3125C29.1484 3.3125 30.8281 3.57943 30.8281 4.11328V5.5L30.8477 5.96875L30.8281 6.98438V10.0117L30.9258 22.4727C30.9258 22.681 30.9128 22.9544 30.8867 23.293V24.2305C30.8867 24.6471 30.8997 25.194 30.9258 25.8711V26.3203ZM48.543 22.2578L48.5234 23.0781V25.3242C48.4974 25.5586 48.4518 25.6758 48.3867 25.6758L34.1094 26.0664C33.9401 25.9232 33.7904 25.7669 33.6602 25.5977C33.6602 25.5977 33.6667 25.4154 33.6797 25.0508V24.4648L33.7188 21.9258V21.6328L33.6797 20.3438C33.6797 19.25 33.7513 18.7031 33.8945 18.7031H38.2109L39.5977 18.7227L45.5352 18.6641H46.1992L46.9414 18.6836H48.2695C48.4518 18.8789 48.543 19.9792 48.543 21.9844V22.2578ZM51.4922 30.9102C51.4922 28.2669 51.5638 26.431 51.707 25.4023C51.707 19.7383 51.7852 14.0286 51.9414 8.27344C51.9023 7.45312 51.8828 6.6263 51.8828 5.79297V5.14844C51.8307 4.74479 51.8047 4.38672 51.8047 4.07422C51.8047 3.76172 51.8372 3.5599 51.9023 3.46875C54.6888 3.63802 57.1302 3.72266 59.2266 3.72266C61.3229 3.72266 62.7617 3.68359 63.543 3.60547C63.569 3.64453 63.5885 3.75521 63.6016 3.9375H63.4648V11.0078L63.6016 26.9062C63.6016 27.0234 63.6211 27.1211 63.6602 27.1992V27.2383C63.6992 27.3164 63.7188 27.401 63.7188 27.4922L63.875 33.1758C63.8099 33.319 63.6927 33.4297 63.5234 33.5078H62.8594L51.9219 33.6836C51.7917 33.6185 51.6224 33.5208 51.4141 33.3906L51.4336 33.0586L51.4922 30.9102ZM75.9648 3.46875L79.6172 3.41016C85.9844 3.41016 90.457 4.46484 93.0352 6.57422C93.582 6.97786 94.181 7.65495 94.832 8.60547C96.7201 11.3529 97.6641 14.3867 97.6641 17.707C97.6641 23.6315 95.6263 28.013 91.5508 30.8516C89.1159 32.5573 86.3164 33.4232 83.1523 33.4492L83.0742 33.5273H82.5859L77.3906 33.4688C75.0339 33.4688 72.0846 33.5273 68.543 33.6445C68.2956 33.1758 68.1719 32.6224 68.1719 31.9844L68.1914 31.2812V28.2344L68.2305 23.8984V16.75C68.2044 15.1094 68.1914 13.8854 68.1914 13.0781V9.875L68.2109 9.42578V3.83984C68.2109 3.73568 68.9206 3.65104 70.3398 3.58594C71.7591 3.50781 72.8919 3.46875 73.7383 3.46875H75.9648ZM84.2461 10.2266C83.5039 9.69271 82.6836 9.39323 81.7852 9.32812C81.4727 9.3151 81.043 9.30208 80.4961 9.28906C79.9622 9.27604 79.5716 9.26302 79.3242 9.25C79.0898 9.60156 78.9336 9.86198 78.8555 10.0312L78.5039 10.7539V11.8477C78.5039 14.1003 78.556 17.1536 78.6602 21.0078L78.7773 26.6523C78.8555 27.056 79.1159 27.2969 79.5586 27.375C80.8997 27.349 81.9349 27.2578 82.6641 27.1016C85.2292 26.1901 86.5117 23.0716 86.5117 17.7461C86.5117 13.8008 85.7565 11.2943 84.2461 10.2266ZM100.34 8.82031L100.242 3.68359C100.255 3.68359 100.301 3.70312 100.379 3.74219C110.275 3.57292 117.729 3.48177 122.742 3.46875C122.794 3.49479 122.833 3.53385 122.859 3.58594V9.09375C122.859 9.6276 122.846 10.0638 122.82 10.4023C122.755 10.6107 122.371 10.7148 121.668 10.7148H121.531C118.38 10.7148 115.099 10.6628 111.688 10.5586C111.688 10.6758 111.668 10.8841 111.629 11.1836C111.603 11.4831 111.583 11.6979 111.57 11.8281L111.473 12.5703C111.408 13.0651 111.362 13.9245 111.336 15.1484L117.391 15.0117C118.432 14.9857 119.188 14.9727 119.656 14.9727H119.969C120.763 14.9727 121.284 14.9987 121.531 15.0508C121.779 15.0898 121.902 15.2201 121.902 15.4414L121.883 15.5977V16.0664L121.98 21.0859L121.961 21.1055V21.0859C118.003 21.2812 114.839 21.3789 112.469 21.3789H111.551V26.1055L122.156 25.7734C122.742 25.7734 123.113 25.8581 123.27 26.0273C123.257 26.3659 123.25 26.8477 123.25 27.4727L123.387 32.7852C123.387 33.1107 123.243 33.2995 122.957 33.3516L116.473 33.293C115.197 33.293 112.658 33.3385 108.855 33.4297L105.652 33.5078C103.387 33.5859 101.707 33.625 100.613 33.625L100.555 33.5859H100.574C100.444 33.4557 100.32 33.332 100.203 33.2148V32.5312L100.32 11.6523L100.34 8.82031Z" fill="#457D61"/>
</g>
<g clip-path="url(#clip1_261_2)">
<g filter="url(#filter1_d_261_2)">
<path d="M154.82 32.9629C152.152 35.1563 145.634 35.1031 142.909 31.787C141.155 29.5726 141.739 26.3868 142.03 25.1976C141.456 25.2304 136.883 25.1877 134.659 22.4825C132.435 19.7772 132.466 14.7805 135.412 10.8959C136.653 9.23354 138.212 7.85272 140.008 6.82561C139.448 11.0151 140.039 15.0626 141.202 15.4224C141.202 15.4224 141.716 15.8042 142.221 14.8767C143.4 12.7381 141.889 8.78902 141.027 6.27991C143.002 5.28002 145.115 4.55013 147.317 4.10756C146.888 7.23881 147.271 10.1408 148.203 10.5443C148.203 10.5443 148.642 10.9151 149.1 10.1731C150.051 8.73284 149.353 6.0164 148.703 3.84545C150.402 3.5202 152.133 3.31934 153.882 3.24436C153.345 5.51374 153.289 7.31389 153.891 7.47742C154.493 7.64095 154.146 7.70648 154.64 7.00814C155.133 6.30981 155.491 4.55323 155.447 3.20041C158.304 3.13057 161.176 3.2101 164.052 3.4387C164.113 6.31605 163.965 9.17502 163.609 11.9922C162.127 11.8943 160.521 11.971 159.41 12.8113C158.299 13.6516 158.988 13.5969 158.988 13.5969C158.988 13.5969 161.096 14.1311 163.418 13.4651C163.176 15.1998 162.853 17 162.416 18.8221C160.312 18.2115 157.719 17.492 156.373 18.4523C155.026 19.4127 156.018 19.4016 156.018 19.4016C159.233 19.9028 159.038 20.7211 161.994 20.3386C161.419 22.4917 160.648 24.5697 159.69 26.5469C157.22 25.6527 153.738 24.4206 151.81 25.5665C150.866 26.1231 151.26 26.6031 151.26 26.6031C151.583 27.7268 155.137 28.3152 158.973 27.8671C157.894 29.8119 156.491 31.5335 154.82 32.9629Z" fill="#457D61"/>
<path d="M154.82 32.9629C152.152 35.1563 145.634 35.1031 142.909 31.787C141.155 29.5726 141.739 26.3868 142.03 25.1976C141.456 25.2304 136.883 25.1877 134.659 22.4825C132.435 19.7772 132.466 14.7805 135.412 10.8959C136.653 9.23354 138.212 7.85272 140.008 6.82561C139.448 11.0151 140.039 15.0626 141.202 15.4224C141.202 15.4224 141.716 15.8042 142.221 14.8767C143.4 12.7381 141.889 8.78902 141.027 6.27991C143.002 5.28002 145.115 4.55013 147.317 4.10756C146.888 7.23881 147.271 10.1408 148.203 10.5443C148.203 10.5443 148.642 10.9151 149.1 10.1731C150.051 8.73284 149.353 6.0164 148.703 3.84545C150.402 3.5202 152.133 3.31934 153.882 3.24436C153.345 5.51374 153.289 7.31389 153.891 7.47742C154.493 7.64095 154.146 7.70648 154.64 7.00814C155.133 6.30981 155.491 4.55323 155.447 3.20041C158.304 3.13057 161.176 3.2101 164.052 3.4387C164.113 6.31605 163.965 9.17502 163.609 11.9922C162.127 11.8943 160.521 11.971 159.41 12.8113C158.299 13.6516 158.988 13.5969 158.988 13.5969C158.988 13.5969 161.096 14.1311 163.418 13.4651C163.176 15.1998 162.853 17 162.416 18.8221C160.312 18.2115 157.719 17.492 156.373 18.4523C155.026 19.4127 156.018 19.4016 156.018 19.4016C159.233 19.9028 159.038 20.7211 161.994 20.3386C161.419 22.4917 160.648 24.5697 159.69 26.5469C157.22 25.6527 153.738 24.4206 151.81 25.5665C150.866 26.1231 151.26 26.6031 151.26 26.6031C151.583 27.7268 155.137 28.3152 158.973 27.8671C157.894 29.8119 156.491 31.5335 154.82 32.9629Z" stroke="#457D61" stroke-linecap="round" stroke-linejoin="round"/>
</g>
<path d="M142.046 25.217C148.712 20.8418 158.379 10.2302 161.622 5.87518Z" fill="#FAFFF9"/>
</g>
</g>
<defs>
<filter id="filter0_d_261_2" x="-0.628906" y="3.3125" width="127.016" height="36.3711" filterUnits="userSpaceOnUse" color-interpolation-filters="sRGB">
<feFlood flood-opacity="0" result="BackgroundImageFix"/>
<feColorMatrix in="SourceAlpha" type="matrix" values="0 0 0 0 0 0 0 0 0 0 0 0 0 0 0 0 0 0 127 0" result="hardAlpha"/>
<feOffset dy="3"/>
<feGaussianBlur stdDeviation="1.5"/>
<feComposite in2="hardAlpha" operator="out"/>
<feColorMatrix type="matrix" values="0 0 0 0 0 0 0 0 0 0 0 0 0 0 0 0 0 0 0.1 0"/>
<feBlend mode="normal" in2="BackgroundImageFix" result="effect1_dropShadow_261_2"/>
<feBlend mode="normal" in="SourceGraphic" in2="effect1_dropShadow_261_2" result="shape"/>
</filter>
<filter id="filter1_d_261_2" x="129.585" y="2.6759" width="37.9802" height="38.2909" filterUnits="userSpaceOnUse" color-interpolation-filters="sRGB">
<feFlood flood-opacity="0" result="BackgroundImageFix"/>
<feColorMatrix in="SourceAlpha" type="matrix" values="0 0 0 0 0 0 0 0 0 0 0 0 0 0 0 0 0 0 127 0" result="hardAlpha"/>
<feOffset dy="3"/>
<feGaussianBlur stdDeviation="1.5"/>
<feComposite in2="hardAlpha" operator="out"/>
<feColorMatrix type="matrix" values="0 0 0 0 0 0 0 0 0 0 0 0 0 0 0 0 0 0 0.1 0"/>
<feBlend mode="normal" in2="BackgroundImageFix" result="effect1_dropShadow_261_2"/>
<feBlend mode="normal" in="SourceGraphic" in2="effect1_dropShadow_261_2" result="shape"/>
</filter>
<clipPath id="clip0_261_2">
<rect width="170" height="40" fill="white"/>
</clipPath>
<clipPath id="clip1_261_2">
<rect width="56.4828" height="51.5539" fill="white" transform="translate(163.825 -18.1852) rotate(50.5784)"/>
</clipPath>
</defs>
</svg>
