<svg width="242" height="77" viewBox="0 0 242 77" fill="none" xmlns="http://www.w3.org/2000/svg">
<g filter="url(#filter0_d_15_117)">
<path d="M16.5 58.0938C15.0547 58.0938 13.7331 57.9961 12.5352 57.8008C11.3503 57.6185 10.2044 57.293 9.09766 56.8242C8.00391 56.3424 7.07943 55.724 6.32422 54.9688C5.56901 54.2135 4.96354 53.2305 4.50781 52.0195C4.0651 50.8086 3.84375 49.4089 3.84375 47.8203C3.84375 47.1172 4.05208 46.7656 4.46875 46.7656H13.375C13.7786 46.7656 14.0781 46.8633 14.2734 47.0586C14.4688 47.2539 14.5859 47.4948 14.625 47.7812C14.6641 48.0677 14.6966 48.3542 14.7227 48.6406C14.7617 48.9271 14.8594 49.168 15.0156 49.3633C15.1849 49.5586 15.4453 49.6562 15.7969 49.6562C16.1224 49.6562 16.3828 49.5716 16.5781 49.4023C16.7865 49.2201 16.9297 48.9531 17.0078 48.6016C17.099 48.25 17.151 47.944 17.1641 47.6836C17.1901 47.4232 17.2031 47.0911 17.2031 46.6875V46.5312C17.1901 45.5938 17.151 43.7839 17.0859 41.1016C17.0339 38.4193 17.0078 36.3229 17.0078 34.8125V28.1719C17.0078 27.7943 17.2812 27.5729 17.8281 27.5078C18.2448 27.5078 18.8698 27.5143 19.7031 27.5273C20.5365 27.5404 21.1615 27.5469 21.5781 27.5469C22.2031 27.5469 23.1276 27.5404 24.3516 27.5273C25.5755 27.5143 26.5 27.5078 27.125 27.5078H28.9609C29.2604 27.5078 29.4688 27.6901 29.5859 28.0547C29.5599 28.2891 29.5469 28.6081 29.5469 29.0117C29.5599 29.4154 29.5599 29.7344 29.5469 29.9688V30.9453C29.4167 34.9427 29.3516 38.5104 29.3516 41.6484V47.7812C29.3516 48.9271 29.1953 49.9883 28.8828 50.9648C28.5703 51.9414 28.1536 52.7747 27.6328 53.4648C27.112 54.1549 26.487 54.7799 25.7578 55.3398C25.0417 55.8867 24.2995 56.3294 23.5312 56.668C22.763 57.0065 21.9492 57.2865 21.0898 57.5078C20.2435 57.7292 19.4427 57.8789 18.6875 57.957C17.9453 58.0482 17.2161 58.0938 16.5 58.0938ZM31.6953 42.8594L31.6562 42.4297C31.9036 40.3073 32.138 38.8294 32.3594 37.9961C32.8672 36.043 33.7786 34.4089 35.0938 33.0938L35.5625 32.625C36.1875 31.8958 37.138 31.2708 38.4141 30.75H39.1562C40.4323 30.2161 42.5286 29.7214 45.4453 29.2656C46.1745 29.2656 46.9362 29.3242 47.7305 29.4414C48.5378 29.5456 49.4297 29.7279 50.4062 29.9883C51.3828 30.2357 52.3203 30.6393 53.2188 31.1992C54.1302 31.7461 54.8854 32.4036 55.4844 33.1719V33.7188C57.6198 36.388 58.6875 39.3828 58.6875 42.7031C58.6875 46.4401 57.8281 49.487 56.1094 51.8438L55.3281 52.8203C54.7292 53.5625 53.9805 54.2005 53.082 54.7344C52.1966 55.2682 51.2526 55.6784 50.25 55.9648C49.2474 56.2383 48.2839 56.4336 47.3594 56.5508C46.4479 56.668 45.5365 56.7266 44.625 56.7266C43.2839 56.7266 42.0013 56.5703 40.7773 56.2578C39.5664 55.9323 38.4271 55.431 37.3594 54.7539C36.3047 54.0768 35.3737 53.2435 34.5664 52.2539C33.7591 51.2643 33.1016 50.0729 32.5938 48.6797C32.099 47.2734 31.7995 45.724 31.6953 44.0312V42.8594ZM42.4375 43.0156C42.4375 47.599 43.3099 49.8906 45.0547 49.8906C45.5365 49.8906 45.9531 49.7995 46.3047 49.6172C46.6693 49.4349 46.9622 49.1549 47.1836 48.7773C47.4049 48.3997 47.5872 48.0156 47.7305 47.625C47.8737 47.2344 47.9714 46.7461 48.0234 46.1602C48.0885 45.5742 48.1276 45.0599 48.1406 44.6172C48.1667 44.1745 48.1797 43.6406 48.1797 43.0156V42.3125C48.1797 41.6354 48.1406 40.9844 48.0625 40.3594C47.9844 39.7344 47.8477 39.1094 47.6523 38.4844C47.4701 37.8464 47.1836 37.3385 46.793 36.9609C46.4023 36.5703 45.9271 36.375 45.3672 36.375C43.4141 36.375 42.4375 38.3021 42.4375 42.1562V43.0156ZM61.1094 56.2578V30.5938C61.1224 30.4896 61.2266 30.3984 61.4219 30.3203C61.6172 30.2292 61.7344 30.1641 61.7734 30.125H72.2812V55.5547C72.2161 55.8281 72.151 56.0169 72.0859 56.1211C72.0339 56.2122 71.9427 56.2578 71.8125 56.2578H61.1094ZM101.891 30.125C102.047 30.1771 102.164 30.4049 102.242 30.8086C102.333 31.1992 102.385 31.694 102.398 32.293C102.411 32.8919 102.411 33.4648 102.398 34.0117C102.385 34.5586 102.366 35.1185 102.34 35.6914C102.327 36.2643 102.32 36.6224 102.32 36.7656C102.294 37.2865 102.281 38.0156 102.281 38.9531V41.0234C102.281 41.9349 102.294 43.1849 102.32 44.7734C102.346 46.362 102.359 47.5339 102.359 48.2891V55.3984C102.307 55.8411 101.943 56.0625 101.266 56.0625H90.3281C90.0938 56.0104 89.7943 55.4635 89.4297 54.4219C89.1823 53.7318 88.7656 52.599 88.1797 51.0234C87.6068 49.4479 87.112 48.0677 86.6953 46.8828C86.2786 45.6849 85.901 44.526 85.5625 43.4062V43.2891V43.4062C85.5234 44.2656 85.4844 45.5482 85.4453 47.2539C85.4062 48.9466 85.3672 50.2161 85.3281 51.0625V55.0469C85.3281 55.4375 85.2826 55.7109 85.1914 55.8672C85.1003 56.0104 84.8594 56.1276 84.4688 56.2188H76.4219L75.5625 55.3594C75.6276 53.1979 75.6797 49.8125 75.7188 45.2031C75.7578 40.5938 75.8099 37.1823 75.875 34.9688V30.75C76.0052 30.2812 76.1615 30.0469 76.3438 30.0469V30.125C77.2292 30.125 78.6159 30.099 80.5039 30.0469C82.4049 29.9948 83.8307 29.9688 84.7812 29.9688H88.0625C88.0755 29.9688 88.0951 29.9753 88.1211 29.9883C88.3555 30.0794 88.4857 30.1836 88.5117 30.3008L88.5312 30.4375C89 31.7005 89.4753 33.0091 89.957 34.3633C90.4388 35.7174 91.0117 37.3581 91.6758 39.2852C92.3398 41.1992 92.8021 42.5208 93.0625 43.25V40.3594C93.3229 35.776 93.4531 32.5208 93.4531 30.5938C93.4531 30.3854 93.5964 30.2552 93.8828 30.2031C94.1693 30.151 94.612 30.125 95.2109 30.125H101.891ZM118.297 47.2734C118.349 40.8672 118.375 36.0885 118.375 32.9375V32.7031C118.375 32.612 118.362 32.293 118.336 31.7461C118.31 31.1862 118.297 30.7109 118.297 30.3203C118.297 28.7578 118.427 27.8724 118.688 27.6641C118.753 27.6641 118.85 27.6706 118.98 27.6836C119.111 27.6966 119.208 27.7031 119.273 27.7031C121.461 27.599 124 27.5469 126.891 27.5469H129.547C129.651 27.5599 129.788 27.6055 129.957 27.6836C130.139 27.7487 130.263 27.7812 130.328 27.7812C130.341 28.4193 130.367 29.5195 130.406 31.082C130.458 32.6445 130.491 33.9987 130.504 35.1445C130.53 36.2904 130.536 37.4167 130.523 38.5234V46.1406C130.523 46.6224 130.536 47.013 130.562 47.3125C130.589 47.612 130.647 47.9635 130.738 48.3672C130.842 48.7708 131.018 49.0768 131.266 49.2852C131.526 49.4805 131.852 49.5781 132.242 49.5781C132.789 49.5781 133.232 49.3503 133.57 48.8945C133.909 48.4258 134.078 47.8854 134.078 47.2734V40.125C134.065 39.2526 134.072 37.8789 134.098 36.0039C134.137 34.1289 134.143 32.6641 134.117 31.6094V30.2031C134.117 30.0599 134.104 29.8451 134.078 29.5586C134.052 29.2591 134.039 29.0312 134.039 28.875V27.9375C134.078 27.638 134.247 27.4557 134.547 27.3906C137.047 27.3906 140.797 27.4167 145.797 27.4688V27.7812H146.656C146.552 30.5547 146.5 33.7839 146.5 37.4688V41.8438C146.5 42.4297 146.487 43.3281 146.461 44.5391C146.435 45.75 146.422 46.6484 146.422 47.2344C146.422 48.9271 146.155 50.4245 145.621 51.7266C145.087 53.0286 144.384 54.0768 143.512 54.8711C142.639 55.6654 141.585 56.3164 140.348 56.8242C139.111 57.332 137.861 57.6836 136.598 57.8789C135.335 58.0742 133.974 58.1719 132.516 58.1719C131.109 58.1719 129.788 58.0807 128.551 57.8984C127.327 57.7292 126.083 57.3971 124.82 56.9023C123.557 56.3945 122.47 55.75 121.559 54.9688C120.647 54.1875 119.892 53.1393 119.293 51.8242C118.694 50.5091 118.362 48.9922 118.297 47.2734ZM164.898 37.7031C164.547 37.7031 164.26 37.651 164.039 37.5469C163.818 37.4427 163.642 37.3125 163.512 37.1562C163.382 37 163.232 36.8438 163.062 36.6875C162.906 36.5312 162.652 36.401 162.301 36.2969C161.949 36.1927 161.5 36.1406 160.953 36.1406C160.784 36.1406 160.576 36.1602 160.328 36.1992C160.094 36.2253 159.833 36.3099 159.547 36.4531C159.26 36.5964 159.117 36.7786 159.117 37C159.117 37.2474 159.234 37.4622 159.469 37.6445C159.716 37.8138 159.99 37.9375 160.289 38.0156C160.602 38.0807 160.947 38.1654 161.324 38.2695C161.715 38.3607 161.988 38.4453 162.145 38.5234L165.016 39.2266C165.862 39.4609 166.624 39.7083 167.301 39.9688C167.978 40.2292 168.694 40.5872 169.449 41.043C170.217 41.4857 170.855 41.9805 171.363 42.5273C171.871 43.0742 172.294 43.7643 172.633 44.5977C172.971 45.418 173.141 46.3229 173.141 47.3125C173.141 48.5104 172.984 49.5781 172.672 50.5156V50.4766C172.398 51.3099 172.014 52.0586 171.52 52.7227C171.025 53.3737 170.439 53.9206 169.762 54.3633C169.085 54.793 168.401 55.1576 167.711 55.457C167.021 55.7435 166.22 55.9779 165.309 56.1602C164.41 56.3294 163.603 56.4596 162.887 56.5508C162.184 56.6289 161.37 56.7005 160.445 56.7656C156.344 56.5573 153.596 55.9062 152.203 54.8125V54.5781C151.018 53.6927 150.139 52.7292 149.566 51.6875C149.007 50.6458 148.674 49.474 148.57 48.1719C148.57 47.8594 148.714 47.7031 149 47.7031C149.078 47.7031 149.195 47.7096 149.352 47.7227C149.508 47.7357 149.625 47.7422 149.703 47.7422H151.695C151.878 47.7161 152.138 47.7031 152.477 47.7031H152.984C153.089 47.7031 153.18 47.7161 153.258 47.7422C154.013 47.7161 155.302 47.7031 157.125 47.7031H158.023C158.284 47.7031 158.486 47.7812 158.629 47.9375C158.772 48.0938 158.883 48.2891 158.961 48.5234C159.052 48.7448 159.15 48.9727 159.254 49.207C159.371 49.4284 159.573 49.6172 159.859 49.7734C160.146 49.9297 160.523 50.0078 160.992 50.0078C161.5 50.0078 161.956 49.8776 162.359 49.6172C162.776 49.3438 162.984 48.9531 162.984 48.4453C162.984 48.2109 162.874 47.9896 162.652 47.7812C162.431 47.5729 162.099 47.3841 161.656 47.2148C161.214 47.0456 160.816 46.9089 160.465 46.8047C160.126 46.7005 159.664 46.5768 159.078 46.4336C158.492 46.2904 158.115 46.1927 157.945 46.1406H156.773C153.948 45.3073 151.91 44.2526 150.66 42.9766C149.423 41.6875 148.805 40.0599 148.805 38.0938C148.805 36.7917 149.046 35.6198 149.527 34.5781C150.022 33.5365 150.667 32.6836 151.461 32.0195C152.268 31.3555 153.212 30.8021 154.293 30.3594C155.374 29.9036 156.474 29.5846 157.594 29.4023C158.714 29.207 159.872 29.1094 161.07 29.1094C163.193 29.1094 165.159 29.4674 166.969 30.1836C168.792 30.8867 170.172 31.8047 171.109 32.9375C171.448 33.276 171.721 33.7057 171.93 34.2266C172.138 34.7474 172.268 35.1641 172.32 35.4766C172.385 35.776 172.464 36.2839 172.555 37L172.008 37.7812H168.688C168.323 37.7812 167.717 37.7682 166.871 37.7422C166.025 37.7161 165.367 37.7031 164.898 37.7031Z" fill="#457D61"/>
</g>
<g filter="url(#filter1_d_15_117)">
<path d="M207.063 54.8441C204.395 57.0375 197.878 56.9843 195.152 53.6682C193.398 51.4538 193.983 48.268 194.273 47.0788C193.699 47.1116 189.126 47.0689 186.902 44.3637C184.679 41.6584 184.709 36.6617 187.655 32.7771C188.896 31.1147 190.455 29.7339 192.251 28.7068C191.691 32.8963 192.282 36.9438 193.445 37.3036C193.445 37.3036 193.959 37.6854 194.465 36.7579C195.643 34.6193 194.132 30.6702 193.271 28.1611C195.245 27.1612 197.358 26.4313 199.56 25.9888C199.131 29.12 199.514 32.022 200.447 32.4255C200.447 32.4255 200.885 32.7963 201.343 32.0543C202.294 30.614 201.596 27.8976 200.946 25.7266C202.645 25.4014 204.376 25.2005 206.125 25.1256C205.588 27.3949 205.533 29.1951 206.134 29.3586C206.736 29.5221 206.389 29.5877 206.883 28.8893C207.377 28.191 207.735 26.4344 207.69 25.0816C210.548 25.0118 213.42 25.0913 216.295 25.3199C216.357 28.1972 216.208 31.0562 215.852 33.8734C214.37 33.7755 212.764 33.8522 211.653 34.6925C210.542 35.5328 211.231 35.4781 211.231 35.4781C211.231 35.4781 213.339 36.0122 215.661 35.3463C215.419 37.081 215.097 38.8812 214.659 40.7033C212.556 40.0927 209.962 39.3732 208.616 40.3335C207.27 41.2939 208.262 41.2828 208.262 41.2828C211.477 41.784 211.282 42.6023 214.237 42.2198C213.662 44.3729 212.891 46.4509 211.933 48.4281C209.463 47.5339 205.981 46.3018 204.053 47.4477C203.109 48.0043 203.504 48.4843 203.504 48.4843C203.827 49.608 207.38 50.1964 211.216 49.7483C210.137 51.6931 208.734 53.4147 207.063 54.8441Z" fill="#457D61"/>
<path d="M207.063 54.8441C204.395 57.0375 197.878 56.9843 195.152 53.6682C193.398 51.4538 193.983 48.268 194.273 47.0788C193.699 47.1116 189.126 47.0689 186.902 44.3637C184.679 41.6584 184.709 36.6617 187.655 32.7771C188.896 31.1147 190.455 29.7339 192.251 28.7068C191.691 32.8963 192.282 36.9438 193.445 37.3036C193.445 37.3036 193.959 37.6854 194.465 36.7579C195.643 34.6193 194.132 30.6702 193.271 28.1611C195.245 27.1612 197.358 26.4313 199.56 25.9888C199.131 29.12 199.514 32.022 200.447 32.4255C200.447 32.4255 200.885 32.7963 201.343 32.0543C202.294 30.614 201.596 27.8976 200.946 25.7266C202.645 25.4014 204.376 25.2005 206.125 25.1256C205.588 27.3949 205.533 29.1951 206.134 29.3586C206.736 29.5221 206.389 29.5877 206.883 28.8893C207.377 28.191 207.735 26.4344 207.69 25.0816C210.548 25.0118 213.42 25.0913 216.295 25.3199C216.357 28.1972 216.208 31.0562 215.852 33.8734C214.37 33.7755 212.764 33.8522 211.653 34.6925C210.542 35.5328 211.231 35.4781 211.231 35.4781C211.231 35.4781 213.339 36.0122 215.661 35.3463C215.419 37.081 215.097 38.8812 214.659 40.7033C212.556 40.0927 209.962 39.3732 208.616 40.3335C207.27 41.2939 208.262 41.2828 208.262 41.2828C211.477 41.784 211.282 42.6023 214.237 42.2198C213.662 44.3729 212.891 46.4509 211.933 48.4281C209.463 47.5339 205.981 46.3018 204.053 47.4477C203.109 48.0043 203.504 48.4843 203.504 48.4843C203.827 49.608 207.38 50.1964 211.216 49.7483C210.137 51.6931 208.734 53.4147 207.063 54.8441Z" stroke="#457D61" stroke-linecap="round" stroke-linejoin="round"/>
</g>
<path d="M194.289 47.0982C200.955 42.723 210.623 32.1114 213.865 27.7564L194.289 47.0982Z" fill="#FAFFF9"/>
<defs>
<filter id="filter0_d_15_117" x="0.84375" y="27.3906" width="175.297" height="36.7812" filterUnits="userSpaceOnUse" color-interpolation-filters="sRGB">
<feFlood flood-opacity="0" result="BackgroundImageFix"/>
<feColorMatrix in="SourceAlpha" type="matrix" values="0 0 0 0 0 0 0 0 0 0 0 0 0 0 0 0 0 0 127 0" result="hardAlpha"/>
<feOffset dy="3"/>
<feGaussianBlur stdDeviation="1.5"/>
<feComposite in2="hardAlpha" operator="out"/>
<feColorMatrix type="matrix" values="0 0 0 0 0 0 0 0 0 0 0 0 0 0 0 0 0 0 0.1 0"/>
<feBlend mode="normal" in2="BackgroundImageFix" result="effect1_dropShadow_15_117"/>
<feBlend mode="normal" in="SourceGraphic" in2="effect1_dropShadow_15_117" result="shape"/>
</filter>
<filter id="filter1_d_15_117" x="181.828" y="24.5571" width="37.9802" height="38.2909" filterUnits="userSpaceOnUse" color-interpolation-filters="sRGB">
<feFlood flood-opacity="0" result="BackgroundImageFix"/>
<feColorMatrix in="SourceAlpha" type="matrix" values="0 0 0 0 0 0 0 0 0 0 0 0 0 0 0 0 0 0 127 0" result="hardAlpha"/>
<feOffset dy="3"/>
<feGaussianBlur stdDeviation="1.5"/>
<feComposite in2="hardAlpha" operator="out"/>
<feColorMatrix type="matrix" values="0 0 0 0 0 0 0 0 0 0 0 0 0 0 0 0 0 0 0.1 0"/>
<feBlend mode="normal" in2="BackgroundImageFix" result="effect1_dropShadow_15_117"/>
<feBlend mode="normal" in="SourceGraphic" in2="effect1_dropShadow_15_117" result="shape"/>
</filter>
</defs>
</svg>
