<svg width="5" height="17" viewBox="0 0 5 17" fill="none" xmlns="http://www.w3.org/2000/svg">
<path d="M4.348 14.826C4.348 13.4346 3.56536 12.652 2.174 12.652C0.78264 12.652 0 13.4346 0 14.826C0 16.2174 0.78264 17 2.174 17C3.56536 17 4.348 16.2174 4.348 14.826Z" fill="#3F4541"/>
<path d="M4.348 8.66593C4.348 7.27457 3.56536 6.49193 2.174 6.49193C0.78264 6.49193 0 7.27457 0 8.66593C0 10.0573 0.78264 10.8399 2.174 10.8399C3.56536 10.8399 4.348 10.0573 4.348 8.66593Z" fill="#3F4541"/>
<path d="M4.348 2.50584C4.348 1.11448 3.56536 0.331839 2.174 0.331839C0.78264 0.331839 0 1.11448 0 2.50584C0 3.8972 0.78264 4.67984 2.174 4.67984C3.56536 4.67984 4.348 3.8972 4.348 2.50584Z" fill="#3F4541"/>
</svg>
