<svg width="28" height="29" viewBox="0 0 28 29" fill="none" xmlns="http://www.w3.org/2000/svg">
<g filter="url(#filter0_d_26_47)">
<path d="M22.7254 17.9371C22.9049 15.5524 23 13.0619 23 10.5C23 9.48895 22.9852 8.48901 22.9562 7.5023C22.9445 7.10268 22.8112 6.71573 22.5719 6.39541C20.9521 4.22644 19.7476 2.98459 17.5708 1.39764C17.2549 1.16734 16.8757 1.04066 16.4848 1.03054C15.7041 1.01031 14.8862 1 14 1C11.361 1 9.32842 1.09141 7.07673 1.26396C6.11372 1.33775 5.34704 2.09975 5.27456 3.06287C5.09509 5.44761 5 7.93813 5 10.5C5 13.0619 5.09509 15.5524 5.27456 17.9371C5.34704 18.9002 6.11372 19.6622 7.07673 19.736C9.32842 19.9086 11.361 20 14 20C16.639 20 18.6716 19.9086 20.9233 19.736C21.8863 19.6622 22.653 18.9002 22.7254 17.9371Z" fill="#FAFFF9"/>
<path d="M22.7254 17.9371C22.9049 15.5524 23 13.0619 23 10.5C23 9.48895 22.9852 8.48901 22.9562 7.5023C22.9445 7.10268 22.8112 6.71573 22.5719 6.39541C20.9521 4.22644 19.7476 2.98459 17.5708 1.39764C17.2549 1.16734 16.8757 1.04066 16.4848 1.03054C15.7041 1.01031 14.8862 1 14 1C11.361 1 9.32842 1.09141 7.07673 1.26396C6.11372 1.33775 5.34704 2.09975 5.27456 3.06287C5.09509 5.44761 5 7.93813 5 10.5C5 13.0619 5.09509 15.5524 5.27456 17.9371C5.34704 18.9002 6.11372 19.6622 7.07673 19.736C9.32842 19.9086 11.361 20 14 20C16.639 20 18.6716 19.9086 20.9233 19.736C21.8863 19.6622 22.653 18.9002 22.7254 17.9371Z" stroke="#3F4541" stroke-width="1.5"/>
<path d="M8 1.11694V9.28359C8 9.92057 8.80786 10.2396 9.28033 9.78916H11H12.7197C13.1921 10.2396 14 9.92057 14 9.28359V1.0115C13.5209 1.00387 13.0235 1 12.5 1C10.8157 1 9.40081 1.04002 8 1.11694Z" fill="#FAFFF9" stroke="#3F4541" stroke-width="1.5" stroke-linejoin="round"/>
</g>
<defs>
<filter id="filter0_d_26_47" x="0.25" y="0.25" width="27.5" height="28.5" filterUnits="userSpaceOnUse" color-interpolation-filters="sRGB">
<feFlood flood-opacity="0" result="BackgroundImageFix"/>
<feColorMatrix in="SourceAlpha" type="matrix" values="0 0 0 0 0 0 0 0 0 0 0 0 0 0 0 0 0 0 127 0" result="hardAlpha"/>
<feOffset dy="4"/>
<feGaussianBlur stdDeviation="2"/>
<feComposite in2="hardAlpha" operator="out"/>
<feColorMatrix type="matrix" values="0 0 0 0 0 0 0 0 0 0 0 0 0 0 0 0 0 0 0.25 0"/>
<feBlend mode="normal" in2="BackgroundImageFix" result="effect1_dropShadow_26_47"/>
<feBlend mode="normal" in="SourceGraphic" in2="effect1_dropShadow_26_47" result="shape"/>
</filter>
</defs>
</svg>
