<svg width="116" height="35" viewBox="0 0 116 35" fill="none" xmlns="http://www.w3.org/2000/svg">
<g filter="url(#filter0_d_22_3)">
<path d="M101.267 27.2173C99.4266 28.7301 94.9317 28.6934 93.0517 26.4063C91.8422 24.8791 92.2454 22.6819 92.4456 21.8616C92.05 21.8843 88.8959 21.8548 87.3621 19.989C85.8284 18.1233 85.8492 14.677 87.8814 11.9979C88.7369 10.8513 89.8122 9.89899 91.051 9.1906C90.6646 12.0801 91.0722 14.8716 91.8746 15.1198C91.8746 15.1198 92.2291 15.3831 92.5778 14.7434C93.3906 13.2684 92.3483 10.5448 91.7543 8.81423C93.1158 8.12461 94.5733 7.62122 96.092 7.31598C95.796 9.47558 96.0605 11.4771 96.7035 11.7553C96.7035 11.7553 97.0058 12.0111 97.3216 11.4994C97.9779 10.506 97.4965 8.63249 97.0481 7.1352C98.2201 6.91088 99.4136 6.77235 100.62 6.72063C100.249 8.28581 100.211 9.52736 100.626 9.64015C101.041 9.75293 100.802 9.79813 101.143 9.31649C101.483 8.83485 101.73 7.62335 101.699 6.69032C103.67 6.64215 105.651 6.697 107.634 6.85467C107.677 8.83916 107.574 10.811 107.328 12.754C106.306 12.6864 105.199 12.7393 104.433 13.3189C103.666 13.8984 104.142 13.8607 104.142 13.8607C104.142 13.8607 105.595 14.2291 107.197 13.7698C107.03 14.9662 106.808 16.2078 106.506 17.4645C105.055 17.0434 103.266 16.5471 102.338 17.2095C101.409 17.8718 102.093 17.8642 102.093 17.8642C104.311 18.2099 104.176 18.7742 106.215 18.5105C105.818 19.9954 105.286 21.4286 104.626 22.7922C102.922 22.1756 100.52 21.3258 99.1908 22.1161C98.5398 22.5 98.8119 22.831 98.8119 22.831C99.0347 23.606 101.486 24.0118 104.131 23.7028C103.387 25.0441 102.419 26.2315 101.267 27.2173Z" fill="#457D61"/>
<path d="M101.267 27.2173C99.4266 28.7301 94.9317 28.6934 93.0517 26.4063C91.8422 24.8791 92.2454 22.6819 92.4456 21.8616C92.05 21.8843 88.8959 21.8548 87.3621 19.989C85.8284 18.1233 85.8492 14.677 87.8814 11.9979C88.7369 10.8513 89.8122 9.89899 91.051 9.1906C90.6646 12.0801 91.0722 14.8716 91.8746 15.1198C91.8746 15.1198 92.2291 15.3831 92.5778 14.7434C93.3906 13.2684 92.3483 10.5448 91.7543 8.81423C93.1158 8.12461 94.5733 7.62122 96.092 7.31598C95.796 9.47558 96.0605 11.4771 96.7035 11.7553C96.7035 11.7553 97.0058 12.0111 97.3216 11.4994C97.9779 10.506 97.4965 8.63249 97.0481 7.1352C98.2201 6.91088 99.4136 6.77235 100.62 6.72063C100.249 8.28581 100.211 9.52736 100.626 9.64015C101.041 9.75293 100.802 9.79813 101.143 9.31649C101.483 8.83485 101.73 7.62335 101.699 6.69032C103.67 6.64215 105.651 6.697 107.634 6.85467C107.677 8.83916 107.574 10.811 107.328 12.754C106.306 12.6864 105.199 12.7393 104.433 13.3189C103.666 13.8984 104.142 13.8607 104.142 13.8607C104.142 13.8607 105.595 14.2291 107.197 13.7698C107.03 14.9662 106.808 16.2078 106.506 17.4645C105.055 17.0434 103.266 16.5471 102.338 17.2095C101.409 17.8718 102.093 17.8642 102.093 17.8642C104.311 18.2099 104.176 18.7742 106.215 18.5105C105.818 19.9954 105.286 21.4286 104.626 22.7922C102.922 22.1756 100.52 21.3258 99.1908 22.1161C98.5398 22.5 98.8119 22.831 98.8119 22.831C99.0347 23.606 101.486 24.0118 104.131 23.7028C103.387 25.0441 102.419 26.2315 101.267 27.2173Z" stroke="#457D61" stroke-linecap="round" stroke-linejoin="round"/>
</g>
<path d="M92.4565 21.875C97.0543 18.8575 103.722 11.5388 105.958 8.5351L92.4565 21.875Z" fill="#FAFFF9"/>
<g filter="url(#filter1_d_22_3)">
<path d="M21.5786 22.226L21.5664 23.6786C21.5664 24.2889 21.5745 25.2533 21.5908 26.5717C21.4769 26.7263 20.5736 26.8036 18.8809 26.8036C17.1882 26.8036 15.6745 26.7792 14.3398 26.7303C14.3236 26.7141 14.2463 26.6123 14.1079 26.4252V24.472L14.1323 20.7245C14.1323 20.3583 14.0916 20.1426 14.0103 20.0775C13.9289 20.0124 13.6807 19.9799 13.2656 19.9799H13.0947C12.3216 19.9799 11.7113 20.0165 11.2637 20.0897V21.7987L11.2393 26.5228C11.1172 26.653 10.0959 26.7181 8.17529 26.7181H7.58936C5.9292 26.7181 4.7207 26.6937 3.96387 26.6449C3.80924 26.5961 3.73193 26.0183 3.73193 24.9115L3.80518 22.2137L3.92725 11.2762V10.6903C3.93538 10.5682 3.93945 10.1451 3.93945 9.42078C3.93945 8.68835 3.98421 8.22449 4.07373 8.02917H4.13477C4.67188 8.04545 5.06657 8.05359 5.31885 8.05359H6.68604L8.16309 8.02917H8.62695C10.0104 8.02917 10.8161 8.18787 11.0439 8.50525C11.1579 8.66801 11.2148 8.91622 11.2148 9.24988L11.1782 10.7758V11.3495L11.105 13.7665C11.105 13.9455 11.1172 14.1815 11.1416 14.4745H11.8984L12.2036 14.4867H13.1802C13.5382 14.4867 13.9045 14.4582 14.2788 14.4012V11.5082L14.291 10.6049V9.76257L14.2788 9.56726V8.9447C14.2788 8.46456 14.2992 8.17159 14.3398 8.0658C14.3887 7.96 14.5067 7.9071 14.6938 7.9071L14.938 7.91931H15.7314L18.3682 7.84607C20.4678 7.84607 21.5176 8.0129 21.5176 8.34656V9.21326L21.5298 9.50623L21.5176 10.141V12.0331L21.5786 19.8212C21.5786 19.9514 21.5705 20.1223 21.5542 20.3339V20.9198C21.5542 21.1802 21.5623 21.522 21.5786 21.9452V22.226ZM32.5894 19.6869L32.5771 20.1996V21.6034C32.5609 21.7499 32.5324 21.8231 32.4917 21.8231L23.5684 22.0673C23.4626 21.9777 23.369 21.8801 23.2876 21.7743C23.2876 21.7743 23.2917 21.6604 23.2998 21.4325V21.0663L23.3242 19.4794V19.2963L23.2998 18.4906C23.2998 17.807 23.3446 17.4652 23.4341 17.4652H26.1318L26.9985 17.4774L30.7095 17.4408H31.1245L31.5884 17.453H32.4185C32.5324 17.5751 32.5894 18.2627 32.5894 19.516V19.6869ZM34.4326 25.0946C34.4326 23.4426 34.4774 22.2951 34.5669 21.6522C34.5669 18.1122 34.6157 14.5437 34.7134 10.9467C34.689 10.434 34.6768 9.9172 34.6768 9.39636V8.99353C34.6442 8.74125 34.6279 8.51746 34.6279 8.32214C34.6279 8.12683 34.6483 8.00069 34.689 7.94373C36.4305 8.04952 37.9564 8.10242 39.2666 8.10242C40.5768 8.10242 41.4761 8.078 41.9644 8.02917C41.9806 8.05359 41.9928 8.12276 42.001 8.23669H41.9155V12.6556L42.001 22.5922C42.001 22.6654 42.0132 22.7264 42.0376 22.7753V22.7997C42.062 22.8485 42.0742 22.9014 42.0742 22.9584L42.1719 26.5106C42.1312 26.6001 42.0579 26.6693 41.9521 26.7181H41.5371L34.7012 26.828C34.6198 26.7873 34.514 26.7263 34.3838 26.6449L34.396 26.4374L34.4326 25.0946ZM49.728 7.94373L52.0107 7.9071C55.9902 7.9071 58.7856 8.56628 60.397 9.88464C60.7388 10.1369 61.1131 10.5601 61.52 11.1542C62.7 12.8713 63.29 14.7675 63.29 16.8427C63.29 20.5455 62.0164 23.2839 59.4692 25.058C57.9474 26.1241 56.1978 26.6652 54.2202 26.6815L54.1714 26.7303H53.8662L50.6191 26.6937C49.1462 26.6937 47.3029 26.7303 45.0894 26.8036C44.9347 26.5106 44.8574 26.1648 44.8574 25.766L44.8696 25.3265V23.4222L44.894 20.7123V16.2445C44.8778 15.2191 44.8696 14.4541 44.8696 13.9496V11.9476L44.8818 11.6669V8.17566C44.8818 8.11056 45.3254 8.05766 46.2124 8.01697C47.0994 7.96814 47.8075 7.94373 48.3364 7.94373H49.728ZM54.9038 12.1674C54.4399 11.8337 53.9272 11.6465 53.3657 11.6058C53.1704 11.5977 52.9019 11.5896 52.5601 11.5814C52.2264 11.5733 51.9823 11.5651 51.8276 11.557C51.6812 11.7767 51.5835 11.9395 51.5347 12.0453L51.3149 12.4969V13.1805C51.3149 14.5884 51.3475 16.4968 51.4126 18.9056L51.4858 22.4335C51.5347 22.6858 51.6974 22.8363 51.9741 22.8851C52.8123 22.8689 53.4593 22.8119 53.915 22.7142C55.5182 22.1446 56.3198 20.1955 56.3198 16.8671C56.3198 14.4012 55.8478 12.8347 54.9038 12.1674ZM64.9624 11.2885L64.9014 8.078C64.9095 8.078 64.938 8.09021 64.9868 8.11462C71.1717 8.00883 75.8307 7.95186 78.9639 7.94373C78.9964 7.96 79.0208 7.98442 79.0371 8.01697V11.4594C79.0371 11.793 79.029 12.0656 79.0127 12.2772C78.972 12.4074 78.7319 12.4725 78.2925 12.4725H78.207C76.2376 12.4725 74.1868 12.44 72.0547 12.3749C72.0547 12.4481 72.0425 12.5783 72.0181 12.7655C72.0018 12.9527 71.9896 13.087 71.9814 13.1683L71.9204 13.6322C71.8797 13.9414 71.8512 14.4786 71.835 15.2435L75.6191 15.1581C76.2702 15.1418 76.7422 15.1337 77.0352 15.1337H77.2305C77.7269 15.1337 78.0524 15.1499 78.207 15.1825C78.3617 15.2069 78.439 15.2883 78.439 15.4266L78.4268 15.5243V15.8173L78.4878 18.9545L78.4756 18.9667V18.9545C76.0016 19.0765 74.0241 19.1376 72.543 19.1376H71.9692V22.0917L78.5977 21.8842C78.9639 21.8842 79.1958 21.9371 79.2935 22.0428C79.2853 22.2544 79.2812 22.5555 79.2812 22.9462L79.3667 26.2665C79.3667 26.4699 79.2772 26.5879 79.0981 26.6205L75.0454 26.5839C74.2479 26.5839 72.661 26.6123 70.2847 26.6693L68.2827 26.7181C66.8667 26.767 65.8169 26.7914 65.1333 26.7914L65.0967 26.767H65.1089C65.0275 26.6856 64.9502 26.6083 64.877 26.535V26.1078L64.9502 13.0585L64.9624 11.2885Z" fill="#457D61"/>
</g>
<defs>
<filter id="filter0_d_22_3" x="82.7766" y="6.1734" width="28.3667" height="28.5812" filterUnits="userSpaceOnUse" color-interpolation-filters="sRGB">
<feFlood flood-opacity="0" result="BackgroundImageFix"/>
<feColorMatrix in="SourceAlpha" type="matrix" values="0 0 0 0 0 0 0 0 0 0 0 0 0 0 0 0 0 0 127 0" result="hardAlpha"/>
<feOffset dy="3"/>
<feGaussianBlur stdDeviation="1.5"/>
<feComposite in2="hardAlpha" operator="out"/>
<feColorMatrix type="matrix" values="0 0 0 0 0 0 0 0 0 0 0 0 0 0 0 0 0 0 0.1 0"/>
<feBlend mode="normal" in2="BackgroundImageFix" result="effect1_dropShadow_22_3"/>
<feBlend mode="normal" in="SourceGraphic" in2="effect1_dropShadow_22_3" result="shape"/>
</filter>
<filter id="filter1_d_22_3" x="0.731934" y="7.84607" width="81.6348" height="24.9819" filterUnits="userSpaceOnUse" color-interpolation-filters="sRGB">
<feFlood flood-opacity="0" result="BackgroundImageFix"/>
<feColorMatrix in="SourceAlpha" type="matrix" values="0 0 0 0 0 0 0 0 0 0 0 0 0 0 0 0 0 0 127 0" result="hardAlpha"/>
<feOffset dy="3"/>
<feGaussianBlur stdDeviation="1.5"/>
<feComposite in2="hardAlpha" operator="out"/>
<feColorMatrix type="matrix" values="0 0 0 0 0 0 0 0 0 0 0 0 0 0 0 0 0 0 0.1 0"/>
<feBlend mode="normal" in2="BackgroundImageFix" result="effect1_dropShadow_22_3"/>
<feBlend mode="normal" in="SourceGraphic" in2="effect1_dropShadow_22_3" result="shape"/>
</filter>
</defs>
</svg>
